<svg width="50" height="48" viewBox="0 0 50 48" fill="none" xmlns="http://www.w3.org/2000/svg">
<path d="M22.6579 12.5563C23.6682 10.8521 24.1734 10 24.9287 10C25.6841 10 26.1892 10.8521 27.1996 12.5563L27.4609 12.9972C27.7478 13.4814 27.8914 13.7236 28.1152 13.8833C28.3391 14.0431 28.6177 14.1024 29.1753 14.221L29.6828 14.329C31.6447 14.7464 32.6258 14.9551 32.8592 15.6608C33.0927 16.3665 32.4237 17.1018 31.0864 18.5724L30.7402 18.9529C30.3603 19.3708 30.1702 19.5798 30.0846 19.8383C29.9992 20.0967 30.0279 20.3755 30.0854 20.9332L30.1377 21.4407C30.3398 23.403 30.4411 24.384 29.8301 24.8202C29.2189 25.2562 28.3005 24.8587 26.4636 24.0635L25.9885 23.8577C25.4663 23.6317 25.2055 23.5187 24.9287 23.5187C24.652 23.5187 24.3911 23.6317 23.869 23.8577L23.3938 24.0635C21.5569 24.8587 20.6386 25.2562 20.0273 24.8202C19.4165 24.384 19.5176 23.403 19.7197 21.4407L19.7721 20.9332C19.8295 20.3755 19.8582 20.0967 19.7729 19.8383C19.6873 19.5798 19.4973 19.3708 19.1172 18.9529L18.7712 18.5724C17.4337 17.1018 16.7649 16.3665 16.9983 15.6608C17.2317 14.9551 18.2126 14.7464 20.1746 14.329L20.6822 14.221C21.2397 14.1024 21.5184 14.0431 21.7422 13.8833C21.9661 13.7236 22.1097 13.4814 22.3965 12.9972L22.6579 12.5563Z" stroke="#022601" stroke-width="2"/>
<path d="M41.8783 18C41.8783 27.3889 34.2898 35 24.9288 35C15.5678 35 7.97922 27.3889 7.97922 18C7.97922 8.61117 15.5678 1 24.9288 1C34.2898 1 41.8783 8.61117 41.8783 18Z" stroke="#022601" stroke-width="2"/>
<path d="M23.9318 34.9436L15.2832 44.4891C14.0446 45.8563 13.4253 46.5398 12.9008 46.7762C11.7057 47.3152 10.38 46.8539 9.75139 45.6806C9.4755 45.1655 9.38953 44.2366 9.21759 42.3788C9.12052 41.3299 9.07197 40.8054 8.92464 40.3661C8.59479 39.3827 7.90167 38.6176 7.01064 38.2536C6.61263 38.091 6.13746 38.0375 5.18708 37.9302C3.50384 37.7405 2.66223 37.6456 2.19561 37.3411C1.13236 36.6473 0.714448 35.1841 1.20278 33.8651C1.41708 33.2862 2.03637 32.6027 3.27496 31.2356L8.92464 25" stroke="#022601" stroke-width="2"/>
<path d="M23.9318 34.9436L33.3325 44.4891C34.6788 45.8563 35.3518 46.5398 35.9218 46.7762C37.221 47.3152 38.6619 46.8539 39.3451 45.6806C39.645 45.1655 39.7385 44.2366 39.9254 42.3788C40.0308 41.3299 40.0837 40.8054 40.2437 40.3661C40.6024 39.3827 41.3557 38.6176 42.3243 38.2536C42.757 38.091 43.2734 38.0375 44.3064 37.9302C46.1359 37.7405 47.0507 37.6456 47.5579 37.3411C48.7137 36.6473 49.1679 35.1841 48.6372 33.8651C48.4042 33.2862 47.7312 32.6027 46.3847 31.2356L40.2437 25" stroke="#022601" stroke-width="2"/>
</svg>
